<?xml version="1.0" standalone="no"?>
<!DOCTYPE svg PUBLIC "-//W3C//DTD SVG 20010904//EN"
 "http://www.w3.org/TR/2001/REC-SVG-20010904/DTD/svg10.dtd">
<svg version="1.0" xmlns="http://www.w3.org/2000/svg"
  width="50" height="50"  viewBox="0 0 944.000000 964.000000"
 preserveAspectRatio="xMidYMid meet">

<g transform="translate(0.000000,964.000000) scale(0.100000,-0.100000)"
fill="#000000" stroke="none">
<path d="M4665 9390 c-3 -5 -31 -10 -61 -10 -30 0 -54 -4 -54 -10 0 -5 -13
-10 -28 -10 -16 0 -34 -8 -42 -20 -8 -11 -21 -20 -30 -20 -9 0 -22 -9 -30 -20
-8 -11 -20 -20 -27 -20 -18 0 -103 -86 -103 -104 0 -8 -3 -16 -7 -18 -13 -5
-53 -88 -53 -108 0 -11 -4 -22 -10 -25 -6 -4 -10 -58 -10 -131 0 -76 4 -124
10 -124 6 0 10 -13 10 -30 0 -16 5 -30 10 -30 6 0 10 -9 10 -20 0 -11 5 -20
10 -20 6 0 10 -7 10 -15 0 -20 185 -205 205 -205 8 0 15 -4 15 -10 0 -5 8 -10
18 -10 10 0 24 -9 32 -20 8 -11 20 -20 28 -20 37 0 42 -24 42 -195 0 -131 -3
-169 -14 -181 -12 -11 -65 -14 -290 -14 l-276 0 0 244 c0 153 -4 247 -10 251
-5 3 -10 25 -10 49 0 35 -6 48 -33 74 l-33 32 -767 0 c-505 0 -767 -3 -767
-10 0 -5 -7 -10 -16 -10 -20 0 -44 -24 -44 -43 0 -9 -6 -17 -12 -20 -20 -6 22
-77 57 -98 27 -16 62 -18 303 -18 l272 -1 0 -91 c0 -65 -4 -94 -14 -105 -12
-12 -92 -14 -495 -14 -474 0 -481 0 -481 -20 0 -11 -4 -20 -10 -20 -6 0 -10
-30 -10 -70 l0 -70 144 0 c86 0 147 -4 151 -10 4 -6 130 -10 344 -10 315 0
339 -1 354 -18 14 -16 17 -44 17 -185 0 -100 -4 -168 -10 -172 -6 -4 -10 -62
-10 -141 0 -83 -4 -134 -10 -134 -5 0 -10 -11 -10 -25 0 -29 -59 -95 -85 -95
-8 0 -15 -4 -15 -10 0 -5 -9 -10 -20 -10 -11 0 -20 -4 -20 -10 0 -6 -27 -10
-60 -10 -33 0 -60 4 -60 10 0 6 -9 10 -20 10 -11 0 -20 5 -20 10 0 6 -7 10
-15 10 -26 0 -85 66 -85 95 0 14 -4 25 -10 25 -6 0 -10 51 -10 134 0 79 -4
137 -10 141 -5 3 -10 21 -10 38 0 24 -9 40 -35 65 l-36 32 -239 0 c-153 0
-240 -4 -240 -10 0 -6 -27 -10 -60 -10 -33 0 -60 -4 -60 -10 0 -5 -7 -10 -15
-10 -20 0 -65 -45 -65 -65 0 -8 -4 -15 -10 -15 -5 0 -10 -9 -10 -20 0 -11 -4
-20 -10 -20 -5 0 -10 -13 -10 -30 0 -16 -4 -30 -10 -30 -5 0 -10 -6 -10 -13 0
-31 -45 -57 -98 -57 -28 0 -54 -4 -57 -10 -4 -6 -65 -10 -151 -10 l-144 0 0
145 0 145 27 0 c31 0 164 62 183 85 7 8 17 15 23 15 15 0 97 81 97 95 0 6 8
20 18 31 24 27 62 102 62 124 0 11 5 22 10 25 13 8 13 252 0 260 -5 3 -10 14
-10 24 0 26 -43 107 -74 137 -14 15 -26 32 -26 39 0 14 -42 55 -56 55 -6 0
-21 11 -34 25 -27 29 -75 55 -101 55 -10 0 -21 5 -24 10 -3 6 -17 10 -31 10
-13 0 -24 5 -24 10 0 6 -40 10 -100 10 -60 0 -100 -4 -100 -10 0 -5 -18 -10
-40 -10 -22 0 -40 -4 -40 -10 0 -5 -13 -10 -28 -10 -16 0 -34 -8 -42 -20 -8
-11 -21 -20 -28 -20 -8 0 -27 -13 -42 -30 -15 -16 -35 -30 -44 -30 -9 0 -16
-7 -16 -16 0 -8 -18 -33 -40 -54 -22 -21 -40 -46 -40 -54 0 -9 -4 -16 -10 -16
-5 0 -10 -9 -10 -20 0 -11 -4 -20 -10 -20 -5 0 -10 -13 -10 -30 0 -16 -4 -30
-10 -30 -6 0 -10 -26 -10 -59 0 -38 -4 -61 -12 -64 -10 -4 -10 -6 0 -6 8 -1
12 -22 12 -71 0 -40 4 -70 10 -70 6 0 10 -9 10 -20 0 -11 5 -20 10 -20 6 0 10
-9 10 -20 0 -11 5 -20 10 -20 6 0 10 -9 10 -20 0 -11 5 -20 10 -20 6 0 10 -7
10 -15 0 -19 124 -145 143 -145 7 0 19 -9 27 -20 8 -11 20 -20 28 -20 7 0 24
-11 37 -25 22 -21 25 -33 25 -100 0 -43 4 -75 10 -75 6 0 10 -95 10 -265 l0
-265 -159 0 c-117 0 -166 -4 -186 -14 -54 -28 -55 -38 -55 -426 0 -390 -4
-363 57 -397 62 -35 123 6 123 82 0 25 5 45 10 45 6 0 10 92 10 255 l0 255
100 0 100 0 0 -560 c0 -367 3 -560 10 -560 6 0 10 -13 10 -28 0 -16 8 -34 20
-42 11 -8 20 -21 20 -30 0 -9 9 -22 20 -30 11 -8 20 -20 20 -28 0 -17 45 -62
62 -62 8 0 20 -9 28 -20 10 -14 26 -20 52 -20 21 0 38 -4 38 -10 0 -6 62 -10
165 -10 103 0 165 -4 165 -10 0 -5 9 -10 20 -10 20 0 20 -7 20 -335 l0 -335
-94 0 c-53 0 -98 -4 -101 -10 -4 -6 -58 -10 -131 -10 -117 0 -124 1 -124 20 0
11 -4 20 -10 20 -5 0 -10 9 -10 20 0 11 -4 20 -10 20 -5 0 -10 9 -10 20 0 11
-4 20 -10 20 -5 0 -10 8 -10 18 0 10 -9 24 -20 32 -11 8 -20 21 -20 30 0 9 -9
22 -20 30 -11 8 -20 20 -20 28 0 17 -24 42 -40 42 -7 0 -25 14 -40 30 -15 17
-35 30 -44 30 -9 0 -16 5 -16 10 0 6 -13 10 -30 10 -16 0 -30 5 -30 10 0 6
-22 10 -50 10 -27 0 -50 5 -50 10 0 6 -24 10 -54 10 -30 0 -58 -4 -61 -10 -3
-5 -26 -10 -51 -10 -24 0 -44 -4 -44 -10 0 -5 -13 -10 -30 -10 -16 0 -30 -4
-30 -10 0 -5 -8 -10 -18 -10 -10 0 -24 -9 -32 -20 -8 -11 -20 -20 -27 -20 -17
0 -123 -106 -123 -123 0 -7 -9 -19 -20 -27 -11 -8 -20 -22 -20 -32 0 -10 -4
-18 -10 -18 -5 0 -10 -13 -10 -30 0 -16 -4 -30 -10 -30 -6 0 -10 -50 -10 -130
0 -80 4 -130 10 -130 6 0 10 -18 10 -40 0 -22 4 -40 8 -40 5 0 14 -15 22 -34
18 -47 155 -181 215 -211 27 -14 61 -25 76 -25 15 0 31 -4 34 -10 8 -13 235
-13 235 0 0 6 14 10 30 10 17 0 30 5 30 10 0 6 8 10 18 10 10 0 24 9 32 20 8
11 21 20 30 20 9 0 22 9 30 20 8 11 20 20 28 20 15 0 42 24 42 38 0 4 11 19
25 32 14 14 43 59 63 102 l37 78 233 0 232 0 0 -305 c0 -197 4 -305 10 -305 6
0 10 -7 10 -16 0 -20 24 -44 44 -44 9 0 16 -4 16 -10 0 -5 14 -10 30 -10 17 0
30 5 30 10 0 6 9 10 20 10 13 0 20 7 20 20 0 11 5 20 10 20 6 0 10 132 10 375
0 243 4 375 10 375 6 0 10 14 10 30 0 17 -4 30 -10 30 -7 0 -10 153 -10 440
l0 441 -25 24 c-24 25 -25 25 -224 25 -122 0 -202 4 -206 10 -3 6 -19 10 -34
10 -39 0 -91 28 -101 54 -4 12 -15 28 -24 35 -9 7 -16 28 -16 47 0 18 -5 36
-10 39 -6 4 -10 183 -10 506 l0 499 305 0 c197 0 305 4 305 10 0 6 34 10 83
10 69 0 87 3 100 18 10 10 17 24 17 30 0 7 5 12 10 12 6 0 10 9 10 20 0 11 -4
20 -10 20 -5 0 -10 7 -10 15 0 9 -11 27 -25 40 l-24 25 -371 0 -370 0 0 60 c0
33 -4 60 -10 60 -15 0 -12 49 4 66 12 11 57 14 235 14 141 0 221 4 221 10 0 6
14 10 30 10 17 0 30 5 30 10 0 6 7 10 15 10 19 0 65 44 65 61 0 6 8 19 18 28
23 21 42 56 43 78 0 10 8 32 18 48 15 25 25 31 62 33 24 2 48 7 53 13 13 12
146 12 146 -1 0 -6 28 -10 65 -10 l65 0 0 -95 c0 -57 4 -95 10 -95 6 0 10 -22
10 -50 0 -27 5 -50 10 -50 6 0 10 -9 10 -20 0 -11 5 -20 10 -20 6 0 10 -8 10
-18 0 -10 9 -24 20 -32 11 -8 20 -22 20 -32 0 -10 7 -18 16 -18 9 0 29 -13 44
-30 15 -16 35 -30 44 -30 9 0 16 -4 16 -10 0 -5 9 -10 20 -10 11 0 20 -4 20
-10 0 -5 9 -10 20 -10 11 0 20 -4 20 -10 0 -6 50 -10 130 -10 80 0 130 4 130
10 0 6 14 10 30 10 17 0 30 3 30 8 0 4 15 13 33 21 39 17 142 115 162 155 8
16 15 37 15 47 0 10 5 21 10 24 6 3 10 44 10 90 0 46 5 87 10 90 6 3 10 31 10
61 l0 54 163 0 c167 1 197 7 197 43 0 9 5 19 10 22 15 9 12 84 -4 101 -8 8
-22 14 -30 14 -9 0 -16 4 -16 10 0 6 -64 11 -157 12 l-158 3 0 115 0 115 163
3 c169 3 192 8 192 46 0 9 5 16 10 16 6 0 10 60 10 161 0 126 3 164 14 175 21
20 251 20 272 0 11 -12 14 -65 14 -293 l0 -279 33 -32 c23 -22 43 -32 64 -32
18 0 35 -4 38 -10 4 -6 122 -10 321 -10 l314 0 0 -113 c0 -106 -2 -115 -23
-135 -21 -20 -34 -22 -125 -22 -56 0 -104 -4 -107 -10 -3 -5 -30 -10 -60 -10
-30 0 -57 -4 -60 -10 -3 -5 -21 -10 -40 -10 -19 0 -37 -4 -40 -10 -3 -5 -21
-10 -40 -10 -19 0 -37 -4 -40 -10 -3 -5 -17 -10 -30 -10 -13 0 -27 -4 -30 -10
-3 -5 -17 -10 -30 -10 -13 0 -27 -4 -30 -10 -3 -5 -17 -10 -30 -10 -13 0 -27
-4 -30 -10 -3 -5 -17 -10 -31 -10 -13 0 -24 -4 -24 -10 0 -5 -9 -10 -20 -10
-11 0 -20 -4 -20 -10 0 -5 -13 -10 -30 -10 -16 0 -30 -4 -30 -10 0 -5 -9 -10
-20 -10 -11 0 -20 -4 -20 -10 0 -5 -13 -10 -30 -10 -16 0 -30 -4 -30 -10 0 -5
-9 -10 -20 -10 -11 0 -20 -4 -20 -10 0 -5 -9 -10 -20 -10 -11 0 -20 -4 -20
-10 0 -5 -9 -10 -20 -10 -11 0 -20 -4 -20 -10 0 -5 -8 -10 -18 -10 -10 0 -24
-9 -32 -20 -8 -11 -22 -20 -32 -20 -10 0 -18 -4 -18 -10 0 -5 -9 -10 -20 -10
-11 0 -20 -4 -20 -10 0 -5 -7 -10 -16 -10 -9 0 -29 -13 -44 -30 -15 -16 -34
-30 -42 -30 -7 0 -20 -9 -28 -20 -8 -11 -21 -20 -28 -20 -8 0 -27 -13 -42 -30
-15 -16 -33 -30 -40 -30 -7 0 -28 -18 -47 -40 -20 -22 -40 -40 -47 -40 -15 0
-376 -355 -376 -370 0 -7 -13 -25 -30 -40 -16 -15 -30 -33 -30 -40 0 -7 -13
-25 -30 -40 -16 -15 -30 -35 -30 -44 0 -9 -4 -16 -10 -16 -5 0 -10 -8 -10 -18
0 -10 -9 -24 -20 -32 -11 -8 -20 -20 -20 -28 0 -19 -30 -47 -38 -36 -4 5 -20
16 -37 24 -54 26 -85 61 -85 96 0 18 -5 36 -10 39 -5 3 -10 21 -10 40 0 19 -4
37 -10 40 -5 3 -10 16 -10 28 0 13 -9 29 -20 37 -11 8 -20 21 -20 30 0 39
-159 160 -211 160 -10 0 -21 5 -24 10 -3 6 -50 10 -105 10 -55 0 -102 -4 -105
-10 -3 -5 -19 -10 -34 -10 -62 0 -251 -125 -251 -166 0 -6 -7 -17 -15 -24 -22
-18 -68 -118 -62 -134 3 -7 -1 -23 -8 -33 -20 -29 -20 -341 0 -363 7 -8 14
-19 14 -25 1 -5 5 -10 10 -10 5 0 13 -3 17 -8 21 -21 124 4 124 31 0 6 5 12
10 12 6 0 10 57 10 150 0 93 4 150 10 150 6 0 10 18 10 40 0 22 5 40 10 40 6
0 10 7 10 15 0 20 65 85 85 85 8 0 15 5 15 10 0 6 9 10 20 10 11 0 20 5 20 10
0 6 36 10 88 10 76 0 89 -3 102 -20 8 -11 20 -20 28 -20 18 0 82 -66 82 -85 0
-8 5 -15 10 -15 6 0 10 -22 10 -50 0 -27 5 -50 10 -50 6 0 10 -18 10 -40 0
-22 5 -40 10 -40 6 0 10 -7 10 -15 0 -17 81 -105 97 -105 5 0 18 -9 28 -20 10
-11 24 -20 30 -20 20 0 43 -32 28 -37 -7 -3 -13 -12 -13 -21 0 -10 -22 -62
-49 -117 -27 -54 -48 -102 -45 -106 2 -4 -5 -24 -16 -44 -11 -19 -20 -44 -20
-55 0 -10 -4 -22 -10 -25 -5 -3 -10 -17 -10 -30 0 -13 -4 -27 -10 -30 -5 -3
-10 -21 -10 -40 0 -19 -4 -37 -10 -40 -5 -3 -10 -21 -10 -40 0 -19 -4 -37 -10
-40 -6 -3 -10 -21 -10 -40 0 -19 -4 -37 -10 -40 -5 -3 -10 -30 -10 -60 0 -30
-4 -57 -10 -60 -6 -4 -10 -62 -10 -141 0 -83 -4 -134 -10 -134 -6 0 -10 -77
-10 -210 0 -133 4 -210 10 -210 6 0 10 -35 10 -84 0 -47 5 -88 10 -91 6 -3 10
-26 10 -50 0 -24 5 -47 10 -50 6 -3 10 -26 10 -50 0 -24 4 -47 10 -50 5 -3 10
-22 10 -41 0 -19 5 -34 10 -34 6 0 10 -18 10 -39 0 -22 5 -43 10 -46 6 -3 10
-17 10 -31 0 -13 5 -24 10 -24 6 0 10 -13 10 -30 0 -16 5 -30 10 -30 6 0 10
-9 10 -20 0 -11 5 -20 12 -20 6 0 9 -3 6 -6 -3 -3 0 -27 7 -54 7 -27 10 -51 7
-54 -3 -3 -29 -6 -58 -6 -29 0 -56 -5 -59 -10 -4 -6 -173 -10 -475 -10 -303 0
-471 -4 -475 -10 -3 -6 -25 -19 -49 -30 -51 -23 -106 -72 -106 -94 0 -9 -4
-16 -10 -16 -5 0 -10 -22 -10 -50 0 -27 -4 -50 -10 -50 -6 0 -10 -53 -10 -140
0 -87 4 -140 10 -140 6 0 10 -16 10 -36 0 -38 18 -64 44 -64 9 0 16 -4 16 -10
0 -23 52 -8 85 25 27 26 35 43 35 70 0 19 5 35 10 35 6 0 10 52 10 136 0 104
3 139 14 150 11 10 40 14 105 14 49 0 93 5 96 10 8 14 885 14 885 0 0 -5 18
-10 40 -10 31 0 40 -4 40 -17 0 -17 -40 -43 -65 -43 -50 0 -185 -109 -185
-149 0 -11 -4 -23 -10 -26 -5 -3 -10 -35 -10 -70 0 -35 -4 -67 -10 -70 -5 -3
-10 -14 -10 -24 0 -24 -26 -74 -49 -96 -76 -68 -206 -86 -296 -41 -61 32 -115
84 -115 112 0 13 -4 26 -10 29 -5 3 -10 19 -10 34 0 30 -20 81 -32 81 -5 0 -8
7 -8 16 0 61 -129 58 -158 -5 -15 -32 -16 -171 -1 -171 5 0 7 -5 4 -11 -13
-20 17 -99 46 -124 16 -13 29 -29 29 -35 0 -15 67 -80 82 -80 8 0 20 -9 28
-20 8 -12 26 -20 42 -20 15 0 28 -4 28 -10 0 -5 14 -10 30 -10 17 0 30 -4 30
-10 0 -6 43 -10 110 -10 67 0 110 4 110 10 0 6 18 10 40 10 22 0 40 5 40 10 0
6 14 10 30 10 17 0 30 5 30 10 0 6 8 10 18 10 10 0 24 9 32 20 8 11 21 20 30
20 20 0 68 64 86 112 3 10 10 18 15 18 5 0 9 14 9 30 0 17 5 30 10 30 6 0 10
18 10 40 0 22 5 40 10 40 6 0 10 27 10 60 0 53 2 60 20 60 11 0 20 5 20 10 0
6 14 10 30 10 17 0 30 5 30 10 0 6 9 10 20 10 11 0 20 5 20 10 0 6 7 10 15 10
18 0 105 -84 105 -101 0 -6 14 -24 30 -39 17 -15 30 -33 30 -39 0 -13 374
-384 393 -390 7 -2 30 -21 51 -42 22 -22 45 -39 51 -39 6 0 17 -9 25 -20 8
-11 21 -20 30 -20 9 0 22 -9 30 -20 8 -11 20 -20 28 -20 7 0 24 -11 37 -25 25
-24 25 -27 25 -194 0 -102 4 -172 10 -176 6 -4 10 -90 10 -226 0 -230 3 -249
44 -249 9 0 16 -4 16 -10 0 -5 14 -10 30 -10 17 0 30 5 30 10 0 6 7 10 15 10
9 0 27 11 40 25 25 24 25 27 25 194 0 102 -4 172 -10 176 -13 8 -13 132 0 140
6 3 10 44 10 91 0 49 4 84 10 84 6 0 10 -4 10 -10 0 -5 14 -10 30 -10 17 0 30
-4 30 -10 0 -5 9 -10 20 -10 11 0 20 -4 20 -10 0 -5 9 -10 20 -10 11 0 20 -4
20 -10 0 -5 9 -10 20 -10 11 0 20 -4 20 -10 0 -5 9 -10 20 -10 11 0 20 -4 20
-10 0 -5 14 -10 30 -10 17 0 30 -4 30 -10 0 -5 11 -10 24 -10 14 0 28 -4 31
-10 3 -5 17 -10 30 -10 13 0 27 -4 30 -10 3 -5 21 -10 40 -10 19 0 37 -5 40
-10 3 -5 21 -10 40 -10 19 0 37 -4 40 -10 3 -5 25 -10 49 -10 23 0 46 -4 51
-9 6 -6 69 -13 140 -16 72 -4 139 -11 150 -15 11 -5 38 -11 60 -12 l40 -3 3
-123 c2 -97 0 -126 -12 -137 -12 -12 -55 -15 -230 -15 -137 0 -216 -4 -216
-10 0 -6 -48 -10 -123 -10 -116 0 -125 -1 -145 -23 -12 -13 -22 -33 -22 -45 0
-11 -4 -24 -10 -27 -6 -4 -10 -115 -10 -301 0 -189 -4 -294 -10 -294 -5 0 -10
-9 -10 -20 0 -18 -7 -20 -60 -20 -33 0 -60 -4 -60 -10 0 -5 -22 -10 -50 -10
-27 0 -50 5 -50 10 0 6 5 10 10 10 6 0 10 25 10 55 0 77 -27 105 -100 105 -52
0 -80 -15 -80 -43 0 -9 -6 -18 -12 -21 -10 -5 -10 -7 0 -12 6 -3 12 -23 12
-45 0 -21 5 -39 10 -39 6 0 10 -4 10 -10 0 -7 -172 -10 -495 -10 -323 0 -495
-3 -495 -10 0 -5 -21 -10 -46 -10 -59 0 -74 -16 -74 -78 0 -40 5 -54 26 -76
l27 -26 733 0 c478 0 735 3 739 10 3 5 16 10 29 10 25 0 86 60 86 85 0 8 5 15
10 15 6 0 10 31 10 74 0 41 5 78 10 81 6 4 10 95 10 241 l0 234 220 0 c140 0
220 4 220 10 0 6 30 10 70 10 l70 0 0 -201 c0 -209 -4 -229 -44 -229 -9 0 -16
-4 -16 -10 0 -5 -9 -10 -20 -10 -11 0 -20 -4 -20 -10 0 -5 -9 -10 -20 -10 -11
0 -20 -4 -20 -10 0 -5 -7 -10 -16 -10 -9 0 -29 -13 -44 -30 -15 -16 -35 -30
-44 -30 -9 0 -16 -7 -16 -16 0 -8 -18 -33 -40 -54 -22 -21 -40 -46 -40 -54 0
-9 -4 -16 -10 -16 -5 0 -10 -9 -10 -20 0 -11 -4 -20 -10 -20 -5 0 -10 -13 -10
-30 0 -16 -4 -30 -10 -30 -15 0 -13 -250 3 -283 6 -15 15 -27 20 -27 4 0 7 -9
7 -20 0 -11 5 -20 10 -20 6 0 10 -7 10 -16 0 -9 14 -29 30 -44 16 -15 30 -33
30 -39 0 -16 46 -61 62 -61 8 0 20 -9 28 -20 8 -11 21 -20 30 -20 9 0 22 -9
30 -20 8 -12 26 -20 42 -20 15 0 28 -4 28 -10 0 -5 14 -10 30 -10 17 0 30 -4
30 -10 0 -6 38 -10 95 -10 57 0 95 4 95 10 0 6 14 10 30 10 17 0 30 5 30 10 0
6 9 10 20 10 11 0 20 5 20 10 0 6 9 10 20 10 11 0 20 5 20 10 0 6 9 10 20 10
11 0 20 5 20 10 0 6 7 10 15 10 19 0 125 104 125 123 0 7 9 19 20 27 11 8 20
22 20 32 0 10 5 18 10 18 6 0 10 11 10 24 0 14 5 28 10 31 6 4 10 68 10 161 0
96 -4 154 -10 154 -5 0 -10 13 -10 28 0 16 -8 34 -20 42 -11 8 -20 20 -20 27
0 17 -146 163 -163 163 -7 0 -19 9 -27 20 -8 11 -22 20 -32 20 -10 0 -18 5
-18 10 0 6 -9 10 -20 10 -11 0 -20 5 -20 10 0 6 -9 10 -20 10 -17 0 -20 7 -20
50 0 28 -4 50 -10 50 -6 0 -10 54 -10 141 0 108 3 144 14 155 21 21 551 21
572 0 11 -12 14 -69 14 -325 0 -201 4 -311 10 -311 6 0 10 -7 10 -15 0 -19 51
-73 86 -91 21 -12 159 -14 750 -14 476 0 724 3 724 10 0 6 11 10 23 10 37 0
57 30 57 84 0 76 -1 76 -224 76 -124 0 -196 4 -196 10 0 6 -32 10 -76 10 -78
0 -104 11 -104 44 0 9 -4 16 -10 16 -6 0 -10 28 -10 63 0 104 -36 97 492 97
l455 0 21 23 c31 33 30 96 -1 125 -23 22 -25 22 -479 22 -533 0 -488 -11 -488
118 0 48 4 82 10 82 6 0 10 80 10 220 0 158 4 226 13 242 20 35 75 88 92 88 8
0 15 5 15 10 0 6 9 10 20 10 11 0 20 5 20 10 0 6 27 10 60 10 33 0 60 -4 60
-10 0 -5 13 -10 28 -10 20 0 39 -12 67 -42 55 -59 65 -80 65 -137 0 -28 5 -53
10 -56 6 -4 10 -55 10 -121 0 -69 4 -114 10 -114 6 0 10 -7 10 -15 0 -9 11
-27 25 -40 l24 -25 251 0 c160 0 250 4 250 10 0 6 20 10 45 10 42 0 50 5 100
55 30 30 55 61 55 70 0 8 5 15 10 15 6 0 10 7 10 15 0 9 11 27 25 40 23 24 29
25 164 25 82 0 142 4 146 10 3 6 35 10 71 10 l64 0 0 -135 c0 -131 -1 -137
-25 -160 -13 -14 -36 -25 -50 -25 -14 0 -25 -4 -25 -10 0 -5 -9 -10 -19 -10
-11 0 -21 -3 -23 -7 -1 -5 -25 -19 -53 -32 -51 -25 -155 -116 -155 -137 0 -6
-9 -19 -20 -29 -11 -10 -20 -24 -20 -32 0 -7 -4 -13 -10 -13 -5 0 -10 -18 -10
-40 0 -22 -4 -40 -10 -40 -6 0 -10 -53 -10 -140 0 -87 4 -140 10 -140 6 0 10
-13 10 -30 0 -16 5 -30 10 -30 6 0 10 -8 10 -18 0 -10 9 -24 20 -32 11 -8 20
-20 20 -27 0 -7 33 -46 73 -86 72 -71 141 -117 177 -117 11 0 21 -4 24 -9 18
-29 274 -29 292 0 3 5 13 9 23 9 23 0 75 26 91 45 7 8 18 15 24 15 6 0 40 28
74 63 61 62 132 179 132 219 0 10 5 18 10 18 6 0 10 48 10 124 0 73 -4 127
-10 131 -5 3 -10 14 -10 24 0 40 -51 113 -138 200 -51 50 -99 91 -107 91 -8 0
-15 5 -15 10 0 6 -9 10 -20 10 -11 0 -20 5 -20 10 0 6 -9 10 -20 10 -13 0 -20
7 -20 20 0 11 -4 20 -10 20 -6 0 -10 117 -10 331 0 273 2 333 14 345 11 11 49
14 173 14 l159 0 27 28 c20 21 27 38 27 69 0 23 5 45 10 48 14 8 14 402 0 410
-5 3 -10 38 -10 76 0 87 -10 99 -83 99 -43 0 -58 -4 -75 -23 -21 -23 -22 -31
-22 -251 0 -237 -3 -256 -44 -256 -9 0 -16 -4 -16 -10 0 -5 -22 -10 -50 -10
-27 0 -50 5 -50 10 0 6 -9 10 -20 10 -19 0 -20 7 -20 110 0 67 -4 110 -10 110
-7 0 -10 142 -10 405 0 263 -3 405 -10 405 -5 0 -10 17 -10 38 0 56 -40 126
-112 199 -71 72 -144 113 -199 113 -21 0 -41 5 -44 10 -4 6 -58 10 -131 10
l-124 0 0 325 0 325 235 0 c220 0 235 -1 235 -18 0 -40 68 -152 128 -211 34
-34 68 -61 75 -61 7 0 19 -9 27 -20 8 -11 22 -20 32 -20 10 0 18 -4 18 -10 0
-5 18 -10 40 -10 22 0 40 -4 40 -10 0 -6 46 -10 118 -10 l118 0 89 45 c86 43
205 142 205 171 0 6 7 17 15 24 19 16 45 68 45 92 0 10 5 18 10 18 6 0 10 50
10 130 0 80 -4 130 -10 130 -5 0 -10 14 -10 30 0 17 -4 30 -10 30 -5 0 -10 9
-10 20 0 11 -4 20 -10 20 -5 0 -10 9 -10 20 0 11 -4 20 -10 20 -5 0 -10 7 -10
15 0 9 -29 45 -65 80 -35 36 -71 65 -80 65 -8 0 -15 5 -15 10 0 6 -9 10 -20
10 -11 0 -20 5 -20 10 0 6 -9 10 -20 10 -11 0 -20 5 -20 10 0 6 -24 10 -54 10
-30 0 -58 5 -61 10 -3 6 -26 10 -51 10 -24 0 -44 -4 -44 -10 0 -5 -22 -10 -50
-10 -27 0 -50 -4 -50 -10 0 -5 -13 -10 -30 -10 -16 0 -30 -4 -30 -10 0 -5 -9
-10 -20 -10 -11 0 -20 -4 -20 -10 0 -5 -8 -10 -18 -10 -10 0 -24 -9 -32 -20
-8 -11 -20 -20 -28 -20 -17 0 -82 -65 -82 -82 0 -8 -9 -20 -20 -28 -12 -8 -20
-26 -20 -42 0 -15 -4 -28 -10 -28 -5 0 -10 -9 -10 -20 0 -11 -4 -20 -10 -20
-5 0 -10 -12 -10 -26 0 -52 -10 -54 -249 -54 l-221 0 0 311 c0 256 3 313 14
325 11 11 47 14 155 14 87 0 141 4 141 10 0 6 14 10 30 10 17 0 30 5 30 10 0
6 9 10 20 10 11 0 20 5 20 10 0 6 7 10 16 10 9 0 29 14 44 30 15 17 33 30 40
30 16 0 40 25 40 42 0 8 9 20 20 28 11 8 20 22 20 32 0 10 5 18 10 18 6 0 10
14 10 30 0 17 5 30 10 30 6 0 10 28 10 64 0 36 5 68 10 71 6 4 10 95 10 241 0
149 -4 234 -10 234 -5 0 -10 7 -10 16 0 8 -6 22 -14 30 -8 8 -22 14 -30 14 -9
0 -16 5 -16 10 0 6 -9 10 -20 10 -11 0 -20 -4 -20 -10 0 -5 -12 -10 -26 -10
-45 0 -54 -20 -54 -124 0 -57 -4 -96 -10 -96 -6 0 -10 -66 -10 -178 0 -170 -1
-180 -25 -228 -30 -61 -58 -88 -121 -120 -43 -22 -60 -24 -176 -24 -79 0 -128
-4 -128 -10 0 -6 -32 -10 -76 -10 -52 0 -80 -4 -90 -14 -11 -12 -14 -61 -14
-265 0 -161 -4 -251 -10 -251 -6 0 -10 -63 -10 -170 0 -107 4 -170 10 -170 6
0 10 -43 10 -110 0 -67 -4 -110 -10 -110 -14 0 -12 -64 2 -78 10 -10 10 -17 0
-32 -15 -24 -17 -180 -2 -180 6 0 10 -85 10 -234 l0 -235 32 -15 c22 -12 61
-16 140 -16 65 0 108 -4 108 -10 0 -6 33 -10 80 -10 61 0 88 -5 116 -20 20
-12 38 -19 41 -17 7 8 73 -62 73 -78 0 -8 5 -15 10 -15 6 0 10 -9 10 -20 0
-11 5 -20 10 -20 7 0 10 -178 10 -515 l0 -515 -380 0 -381 0 -24 -25 c-33 -33
-34 -90 -1 -128 l23 -27 392 0 391 0 0 -40 c0 -22 -4 -40 -10 -40 -6 0 -10
-28 -10 -65 l0 -65 -189 0 c-116 0 -192 -4 -196 -10 -3 -5 -26 -10 -50 -10
-24 0 -47 -5 -50 -10 -3 -5 -15 -10 -25 -10 -39 0 -120 -56 -120 -82 0 -8 -9
-20 -20 -28 -11 -8 -20 -22 -20 -32 0 -10 -4 -18 -10 -18 -5 0 -10 -9 -10 -20
0 -19 -7 -20 -173 -20 -121 0 -177 4 -185 12 -8 8 -12 50 -12 124 0 65 -4 115
-10 119 -5 3 -10 17 -10 31 0 13 -4 24 -10 24 -5 0 -10 8 -10 18 0 10 -9 24
-20 32 -11 8 -20 20 -20 27 0 19 -86 103 -105 103 -8 0 -15 5 -15 10 0 6 -9
10 -20 10 -11 0 -20 5 -20 10 0 6 -9 10 -20 10 -11 0 -20 5 -20 10 0 6 -22 10
-50 10 -27 0 -50 5 -50 10 0 6 -18 10 -40 10 -22 0 -40 -4 -40 -10 0 -6 -27
-10 -60 -10 -33 0 -60 -4 -60 -10 0 -5 -9 -10 -20 -10 -11 0 -20 -4 -20 -10 0
-5 -9 -10 -20 -10 -11 0 -20 -4 -20 -10 0 -5 -7 -10 -16 -10 -18 0 -119 -106
-140 -146 -8 -15 -14 -35 -14 -45 0 -10 -4 -21 -10 -24 -6 -3 -10 -52 -10
-111 0 -63 -4 -104 -10 -104 -5 0 -10 -7 -10 -16 0 -38 -23 -44 -174 -44 -91
0 -146 -4 -146 -10 0 -5 -7 -10 -16 -10 -29 0 -44 -27 -44 -80 0 -41 5 -56 25
-75 24 -25 27 -25 190 -25 l165 0 0 -30 c0 -16 5 -30 10 -30 6 0 10 -31 10
-73 0 -107 1 -107 -197 -107 -154 0 -160 -1 -181 -23 -32 -34 -30 -96 3 -125
23 -20 36 -22 159 -22 190 0 216 -18 216 -151 l0 -69 -240 0 c-153 0 -240 4
-240 10 0 6 -40 10 -100 10 l-100 0 0 284 c0 179 -4 287 -10 291 -5 3 -10 23
-10 44 0 74 -37 111 -111 111 -21 0 -41 5 -44 10 -4 6 -114 10 -296 10 -241 0
-293 2 -305 15 -12 11 -14 40 -12 137 l3 123 40 3 c22 1 49 7 60 12 22 9 161
21 237 20 25 -1 49 4 53 10 3 5 26 10 50 10 24 0 47 5 50 10 3 6 21 10 40 10
19 0 37 5 40 10 3 6 17 10 30 10 13 0 27 5 30 10 3 6 21 10 40 10 19 0 37 5
40 10 3 6 17 10 31 10 13 0 24 5 24 10 0 6 14 10 30 10 17 0 30 5 30 10 0 6 9
10 20 10 11 0 20 5 20 10 0 6 14 10 30 10 17 0 30 5 30 10 0 6 9 10 20 10 11
0 20 5 20 10 0 6 9 10 20 10 11 0 20 5 20 10 0 6 14 10 30 10 17 0 30 5 30 10
0 6 8 10 18 10 10 0 24 9 32 20 8 11 22 20 32 20 10 0 18 5 18 10 0 6 9 10 20
10 11 0 20 5 20 10 0 6 9 10 20 10 11 0 20 5 20 10 0 6 8 10 18 10 10 0 24 9
32 20 8 11 22 20 32 20 10 0 18 5 18 10 0 6 8 10 18 10 10 0 24 9 32 20 8 11
21 20 28 20 8 0 27 14 42 30 15 17 33 30 40 30 7 0 21 12 32 26 12 14 29 29
38 32 26 10 400 379 400 395 0 7 9 19 20 27 11 8 20 21 20 30 0 9 9 22 20 30
11 8 20 20 20 28 0 17 25 42 42 42 8 0 20 -9 28 -20 8 -11 22 -20 32 -20 10 0
18 -4 18 -10 0 -5 7 -10 15 -10 9 0 31 -16 50 -35 32 -31 35 -40 35 -90 0 -30
5 -55 10 -55 6 0 10 -9 10 -20 0 -11 5 -20 10 -20 6 0 10 -9 10 -20 0 -11 5
-20 10 -20 6 0 10 -6 10 -14 0 -19 116 -136 135 -136 8 0 15 -4 15 -10 0 -5 9
-10 20 -10 11 0 20 -4 20 -10 0 -5 18 -10 40 -10 22 0 40 -4 40 -10 0 -6 47
-10 120 -10 73 0 120 4 120 10 0 6 14 10 30 10 17 0 30 5 30 10 0 6 8 10 18
10 10 0 24 9 32 20 8 11 21 20 30 20 9 0 22 9 30 20 8 11 22 20 32 20 11 0 18
7 18 18 0 9 11 26 25 36 30 23 75 110 75 147 0 15 4 31 10 34 6 4 10 73 10
174 l0 167 -38 37 c-47 46 -99 51 -137 12 -24 -23 -25 -30 -25 -140 0 -70 -4
-115 -10 -115 -6 0 -10 -27 -10 -60 0 -33 -3 -60 -8 -60 -4 0 -13 -15 -21 -33
-8 -17 -23 -42 -34 -55 -29 -31 -123 -75 -147 -69 -11 3 -22 1 -25 -3 -17 -27
-180 36 -201 78 -6 12 -18 30 -27 40 -10 10 -17 33 -17 50 0 17 -4 34 -10 37
-5 3 -10 26 -10 50 0 24 -4 47 -10 50 -5 3 -10 16 -10 29 0 12 -13 35 -29 50
-33 31 -156 96 -183 96 -11 0 -18 7 -18 20 0 11 5 20 10 20 6 0 10 9 10 20 0
11 5 20 10 20 6 0 10 9 10 20 0 11 5 20 10 20 6 0 10 9 10 20 0 11 5 20 10 20
6 0 10 9 10 20 0 11 5 20 10 20 6 0 10 13 10 29 0 16 3 31 8 33 11 5 52 88 52
106 0 10 7 30 15 46 8 15 15 39 15 52 0 13 5 24 10 24 6 0 10 14 10 30 0 17 5
30 10 30 6 0 10 15 10 34 0 19 5 38 10 41 6 3 10 21 10 40 0 19 4 37 10 40 6
3 10 21 10 40 0 19 5 37 10 40 6 3 10 26 10 50 0 24 5 47 10 50 6 3 10 30 10
60 0 30 5 57 10 60 6 4 10 150 10 405 0 255 -4 401 -10 405 -5 3 -10 26 -10
50 0 24 -4 47 -10 50 -5 3 -10 21 -10 40 0 19 -4 37 -10 40 -5 3 -10 17 -10
30 0 13 -4 27 -10 30 -5 3 -10 21 -10 40 0 19 -4 37 -10 40 -5 3 -10 17 -10
30 0 13 -4 27 -10 30 -5 3 -10 19 -10 34 0 15 -8 43 -17 62 -10 19 -18 39 -19
44 -2 6 -6 25 -9 43 l-7 32 236 0 c151 0 236 4 236 10 0 6 18 10 40 10 22 0
40 5 40 10 0 6 12 10 26 10 17 0 39 14 64 40 21 22 44 40 50 40 14 0 40 25 40
38 0 5 7 15 15 22 18 15 65 109 65 131 0 10 4 20 9 24 12 7 12 243 0 251 -5 3
-9 13 -9 23 0 22 -47 116 -65 131 -8 7 -15 18 -15 24 0 15 -72 86 -87 86 -6 0
-16 7 -23 15 -16 19 -106 62 -148 70 -18 4 -82 7 -142 6 -108 0 -112 -1 -193
-40 -83 -40 -157 -104 -157 -136 0 -8 -4 -15 -10 -15 -5 0 -10 -9 -10 -20 0
-11 -4 -20 -10 -20 -5 0 -10 -9 -10 -20 0 -11 -4 -20 -10 -20 -5 0 -10 -13
-10 -30 0 -16 -4 -30 -9 -30 -6 0 -11 -17 -13 -37 l-3 -38 -57 -3 c-32 -2 -58
-7 -58 -12 0 -6 -9 -10 -20 -10 -11 0 -20 5 -20 10 0 6 -9 10 -20 10 -12 0
-20 7 -20 16 0 8 -18 33 -40 54 -22 21 -40 44 -40 50 0 6 -27 38 -60 70 -33
32 -60 64 -60 70 0 15 -201 210 -216 210 -6 0 -41 32 -78 70 -36 39 -71 70
-77 70 -6 0 -24 14 -39 30 -15 17 -34 30 -42 30 -7 0 -20 9 -28 20 -8 11 -20
20 -28 20 -7 0 -24 11 -37 25 -22 21 -25 33 -25 100 0 43 -4 75 -10 75 -6 0
-10 92 -10 255 0 163 -4 255 -10 255 -5 0 -10 7 -10 16 0 29 -27 44 -80 44
-53 0 -80 -15 -80 -44 0 -9 -4 -16 -10 -16 -6 0 -10 -95 -10 -265 0 -258 -1
-265 -20 -265 -11 0 -20 5 -20 10 0 6 -9 10 -20 10 -11 0 -20 5 -20 10 0 6 -9
10 -20 10 -11 0 -20 5 -20 10 0 6 -9 10 -20 10 -11 0 -20 5 -20 10 0 6 -9 10
-20 10 -11 0 -20 5 -20 10 0 6 -9 10 -20 10 -11 0 -20 5 -20 10 0 6 -13 10
-30 10 -16 0 -30 3 -30 8 0 10 -50 32 -71 32 -10 0 -21 5 -24 10 -3 6 -17 10
-30 10 -13 0 -27 5 -30 10 -3 6 -17 10 -30 10 -13 0 -27 5 -30 10 -3 6 -26 10
-50 10 -24 0 -47 5 -50 10 -3 6 -21 10 -40 10 -19 0 -37 5 -40 10 -3 6 -30 10
-60 10 -30 0 -57 5 -60 10 -3 6 -40 10 -81 10 -41 0 -74 4 -74 9 0 5 -16 7
-35 4 -23 -3 -45 1 -60 11 -24 16 -25 20 -25 131 l0 115 70 0 c40 0 70 4 70
10 0 6 101 10 283 10 282 0 284 0 303 23 42 49 44 59 44 287 0 140 4 220 10
220 6 0 10 27 10 60 l0 60 679 0 c443 0 682 3 686 10 3 6 16 10 29 10 30 0 76
58 76 95 0 25 -46 65 -75 65 -14 0 -25 5 -25 10 0 7 -236 10 -689 10 -449 0
-692 -3 -696 -10 -3 -5 -28 -10 -54 -10 -58 0 -94 -16 -109 -49 -8 -17 -12
-106 -12 -289 0 -215 -3 -266 -14 -278 -21 -21 -551 -21 -572 0 -11 11 -14 48
-14 165 0 94 4 151 10 151 6 0 10 7 10 15 0 20 65 85 85 85 8 0 15 5 15 10 0
6 8 10 18 10 10 0 24 9 32 20 8 11 20 20 27 20 19 0 123 106 123 125 0 8 5 15
10 15 6 0 10 9 10 20 0 11 5 20 10 20 6 0 10 9 10 20 0 11 5 20 10 20 6 0 10
14 10 30 0 17 5 30 10 30 6 0 10 51 10 134 0 79 -4 137 -10 141 -5 3 -10 17
-10 31 0 13 -4 24 -10 24 -5 0 -10 7 -10 15 0 8 -6 25 -12 37 -21 36 -157 168
-173 168 -8 0 -15 5 -15 10 0 6 -9 10 -20 10 -11 0 -20 5 -20 10 0 6 -11 10
-24 10 -14 0 -28 5 -31 10 -3 6 -30 10 -60 10 -30 0 -57 5 -60 10 -3 6 -21 10
-40 10 -19 0 -37 -4 -40 -10z m-1325 -1045 l0 -105 -90 0 -90 0 0 105 0 105
90 0 90 0 0 -105z m1680 -1065 c0 -6 33 -10 80 -10 47 0 80 -4 80 -10 0 -5 18
-10 40 -10 22 0 40 -4 40 -10 0 -5 14 -10 30 -10 17 0 30 -4 30 -10 0 -5 14
-10 30 -10 17 0 30 -4 30 -10 0 -5 9 -10 20 -10 11 0 35 -9 55 -20 20 -11 42
-20 49 -20 7 0 48 -18 91 -40 43 -22 85 -40 94 -40 9 0 23 -9 31 -20 8 -11 22
-20 32 -20 10 0 18 -4 18 -10 0 -5 9 -10 20 -10 11 0 20 -4 20 -10 0 -5 9 -10
20 -10 11 0 20 -4 20 -10 0 -5 8 -10 18 -10 10 0 24 -9 32 -20 8 -11 22 -20
32 -20 10 0 18 -4 18 -10 0 -5 7 -10 16 -10 9 0 29 -13 44 -30 15 -16 34 -30
42 -30 7 0 20 -9 28 -20 8 -11 20 -20 28 -20 7 0 30 -16 50 -35 20 -19 42 -35
48 -35 13 0 354 -348 354 -362 0 -5 14 -23 30 -38 17 -15 30 -33 30 -40 0 -7
14 -25 30 -40 17 -15 30 -34 30 -42 0 -7 9 -20 20 -28 11 -8 20 -21 20 -29 0
-7 8 -21 18 -30 9 -9 28 -38 42 -66 13 -27 30 -58 38 -67 23 -27 102 -191 102
-210 0 -10 5 -18 10 -18 6 0 10 -9 10 -20 0 -11 5 -20 10 -20 6 0 10 -9 10
-20 0 -11 5 -20 10 -20 6 0 10 -9 10 -20 0 -11 5 -20 10 -20 6 0 10 -13 10
-30 0 -16 5 -30 10 -30 6 0 10 -13 10 -30 0 -16 5 -30 10 -30 6 0 10 -18 10
-40 0 -22 5 -40 10 -40 6 0 10 -13 10 -30 0 -16 5 -30 10 -30 6 0 10 -22 10
-50 0 -27 5 -50 10 -50 6 0 10 -20 10 -44 0 -25 5 -48 10 -51 6 -3 10 -30 10
-60 0 -30 5 -57 10 -60 14 -8 14 -582 0 -590 -6 -3 -10 -35 -10 -71 0 -36 -4
-64 -10 -64 -5 0 -10 -22 -10 -50 0 -27 -4 -50 -10 -50 -5 0 -10 -18 -10 -40
0 -22 -4 -40 -10 -40 -5 0 -10 -18 -10 -40 0 -22 -4 -40 -10 -40 -5 0 -10 -13
-10 -30 0 -16 -4 -30 -10 -30 -5 0 -10 -13 -10 -30 0 -16 -4 -30 -10 -30 -5 0
-10 -13 -10 -30 0 -16 -4 -30 -10 -30 -5 0 -10 -8 -10 -19 0 -10 -18 -53 -40
-96 -22 -43 -40 -83 -40 -90 0 -18 -28 -71 -45 -85 -8 -7 -15 -19 -15 -26 0
-8 -4 -14 -10 -14 -5 0 -10 -9 -10 -20 0 -11 -4 -20 -10 -20 -5 0 -10 -8 -10
-18 0 -10 -9 -24 -20 -32 -11 -8 -20 -22 -20 -32 0 -10 -4 -18 -10 -18 -5 0
-10 -7 -10 -16 0 -9 -13 -29 -30 -44 -16 -15 -30 -33 -30 -40 0 -7 -13 -25
-30 -40 -16 -15 -30 -33 -30 -40 0 -6 -22 -33 -50 -60 -27 -27 -50 -53 -50
-59 0 -14 -223 -241 -237 -241 -7 0 -28 -16 -47 -35 -20 -19 -40 -35 -47 -35
-6 0 -24 -13 -39 -30 -15 -16 -34 -30 -42 -30 -7 0 -20 -9 -28 -20 -8 -11 -21
-20 -30 -20 -9 0 -22 -9 -30 -20 -8 -11 -22 -20 -32 -20 -10 0 -18 -4 -18 -10
0 -5 -8 -10 -18 -10 -10 0 -24 -9 -32 -20 -8 -11 -22 -20 -32 -20 -10 0 -18
-4 -18 -10 0 -5 -9 -10 -20 -10 -11 0 -20 -4 -20 -10 0 -5 -9 -10 -20 -10 -11
0 -20 -4 -20 -10 0 -5 -9 -10 -20 -10 -11 0 -20 -4 -20 -10 0 -5 -9 -10 -20
-10 -11 0 -20 -4 -20 -10 0 -5 -13 -10 -30 -10 -16 0 -30 -4 -30 -10 0 -5 -9
-10 -20 -10 -11 0 -20 -4 -20 -10 0 -5 -9 -10 -20 -10 -11 0 -35 -9 -55 -20
-20 -11 -44 -20 -55 -20 -10 0 -22 -4 -25 -10 -3 -5 -22 -10 -41 -10 -19 0
-34 -4 -34 -10 0 -5 -18 -10 -40 -10 -22 0 -40 -4 -40 -10 0 -5 -18 -10 -40
-10 -22 0 -40 -4 -40 -10 0 -5 -18 -10 -40 -10 -22 0 -40 -4 -40 -10 0 -6 -33
-10 -80 -10 -47 0 -80 -4 -80 -10 0 -6 -95 -10 -265 -10 -170 0 -265 4 -265
10 0 6 -30 10 -70 10 -40 0 -70 4 -70 10 0 6 -22 10 -50 10 -27 0 -50 5 -50
10 0 6 -22 10 -50 10 -27 0 -50 5 -50 10 0 6 -13 10 -30 10 -16 0 -30 5 -30
10 0 6 -11 10 -24 10 -14 0 -28 5 -31 10 -3 6 -17 10 -30 10 -13 0 -27 5 -30
10 -3 5 -17 10 -30 10 -13 0 -27 5 -30 10 -3 5 -14 10 -24 10 -21 0 -71 22
-71 33 0 4 -9 7 -20 7 -11 0 -20 5 -20 10 0 6 -9 10 -20 10 -11 0 -20 5 -20
10 0 6 -9 10 -20 10 -11 0 -20 5 -20 10 0 6 -9 10 -20 10 -11 0 -20 5 -20 10
0 6 -9 10 -20 10 -11 0 -20 5 -20 10 0 6 -9 10 -20 10 -11 0 -20 5 -20 10 0 6
-8 10 -18 10 -10 0 -24 9 -32 20 -8 11 -21 20 -30 20 -9 0 -22 9 -30 20 -8 11
-21 20 -30 20 -9 0 -22 9 -30 20 -8 11 -21 20 -30 20 -9 0 -22 9 -30 20 -8 11
-21 20 -28 20 -7 0 -31 18 -52 40 -21 22 -44 40 -51 40 -15 0 -349 336 -349
351 0 6 -18 28 -40 49 -22 21 -40 45 -40 52 0 7 -9 20 -20 28 -11 8 -20 21
-20 30 0 9 -9 22 -20 30 -11 8 -20 21 -20 30 0 9 -9 22 -20 30 -11 8 -20 21
-20 30 0 9 -9 22 -20 30 -11 8 -20 22 -20 32 0 10 -4 18 -10 18 -5 0 -10 9
-10 19 0 11 -3 21 -8 23 -10 4 -92 170 -92 185 0 7 -9 28 -20 48 -11 20 -20
44 -20 55 0 11 -4 20 -10 20 -5 0 -10 14 -10 30 0 17 -4 30 -10 30 -5 0 -10
14 -10 30 0 17 -4 30 -10 30 -5 0 -10 14 -10 30 0 17 -4 30 -10 30 -5 0 -10
23 -10 50 0 28 -4 50 -10 50 -5 0 -10 18 -10 40 0 22 -4 40 -10 40 -6 0 -10
27 -10 60 0 33 -4 60 -10 60 -6 0 -10 31 -10 74 0 41 -5 78 -10 81 -13 8 -12
402 1 410 5 4 9 39 9 80 0 41 5 77 10 80 6 3 10 31 10 61 0 30 5 54 10 54 6 0
10 18 10 40 0 22 5 40 10 40 6 0 10 18 10 40 0 22 5 40 10 40 6 0 10 14 10 30
0 17 5 30 10 30 6 0 10 14 10 30 0 17 5 30 10 30 6 0 10 14 10 30 0 17 5 30
10 30 6 0 10 9 10 20 0 11 5 20 10 20 6 0 10 14 10 30 0 17 5 30 10 30 6 0 10
9 10 20 0 11 5 20 10 20 6 0 10 8 10 17 0 23 107 238 126 254 8 6 14 18 14 25
0 8 5 14 10 14 6 0 10 8 10 18 0 10 9 24 20 32 11 8 20 22 20 32 0 10 5 18 10
18 6 0 10 8 10 18 0 10 9 24 20 32 11 8 20 21 20 28 0 8 14 27 30 42 17 15 30
33 30 40 0 6 18 29 40 50 22 21 40 43 40 49 0 13 302 321 315 321 6 0 22 11
37 25 15 14 32 25 39 25 6 0 24 14 39 30 15 17 34 30 42 30 7 0 20 9 28 20 8
11 21 20 30 20 9 0 22 9 30 20 8 11 22 20 32 20 10 0 18 5 18 10 0 6 8 10 18
10 10 0 24 9 32 20 8 11 22 20 32 20 10 0 18 5 18 10 0 6 9 10 20 10 11 0 20
5 20 10 0 6 9 10 20 10 11 0 20 5 20 10 0 6 9 10 20 10 11 0 20 5 20 10 0 6 9
10 19 10 11 0 21 3 23 8 4 10 87 52 104 52 7 0 29 9 49 20 20 11 44 20 55 20
11 0 20 5 20 10 0 6 14 10 30 10 17 0 30 5 30 10 0 6 14 10 30 10 17 0 30 5
30 10 0 6 18 10 40 10 22 0 40 5 40 10 0 6 18 10 40 10 22 0 40 5 40 10 0 6
27 10 60 10 33 0 60 4 60 10 0 6 112 10 315 10 203 0 315 -4 315 -10z m2610
-750 c0 -5 7 -10 15 -10 19 0 105 -84 105 -103 0 -7 9 -19 20 -27 18 -13 20
-26 20 -111 0 -111 -9 -135 -72 -194 -72 -67 -62 -65 -358 -65 l-271 0 -24 25
c-14 13 -25 36 -25 50 0 23 3 25 44 25 25 0 48 5 51 10 3 6 16 10 28 10 24 0
87 62 87 85 0 8 5 15 10 15 6 0 10 18 10 40 0 22 5 40 10 40 6 0 10 18 10 39
0 22 3 41 8 43 4 2 16 21 27 42 11 21 29 44 40 50 11 6 27 19 35 28 12 15 33
18 123 18 65 0 107 -4 107 -10z"/>
<path d="M4685 6960 c-3 -5 -19 -10 -34 -10 -31 0 -83 -23 -101 -45 -7 -8 -18
-15 -24 -15 -15 0 -96 -82 -96 -96 0 -6 -9 -19 -20 -29 -11 -10 -20 -29 -20
-42 0 -12 -4 -23 -10 -23 -6 0 -10 -30 -10 -70 0 -40 4 -70 10 -70 6 0 10 -18
10 -40 0 -22 5 -40 10 -40 6 0 10 -9 10 -20 0 -11 5 -20 10 -20 6 0 10 -9 10
-20 0 -11 5 -20 10 -20 6 0 10 -13 10 -30 0 -16 5 -30 10 -30 6 0 10 -25 10
-55 0 -46 -4 -60 -25 -80 -13 -14 -31 -25 -40 -25 -8 0 -15 -4 -15 -10 0 -6
-43 -10 -110 -10 -67 0 -110 4 -110 10 0 6 -35 10 -84 10 -47 0 -88 5 -91 10
-3 6 -44 10 -91 10 -49 0 -84 4 -84 10 0 6 -37 10 -90 10 -53 0 -90 4 -90 10
0 6 -33 10 -80 10 -47 0 -80 4 -80 10 0 6 -30 10 -70 10 -40 0 -70 4 -70 10 0
6 -27 10 -60 10 l-60 0 0 -74 c0 -41 5 -78 10 -81 6 -3 10 -40 10 -81 0 -43 4
-74 10 -74 6 0 10 -37 10 -90 0 -53 4 -90 10 -90 6 0 10 -43 10 -110 0 -67 4
-110 10 -110 6 0 10 -48 10 -124 0 -73 4 -127 10 -131 14 -9 13 -196 -2 -226
-6 -14 -23 -31 -37 -37 -30 -15 -71 -16 -71 -2 0 6 -13 10 -30 10 -16 0 -30 5
-30 10 0 6 -9 10 -20 10 -11 0 -20 5 -20 10 0 6 -9 10 -20 10 -11 0 -35 9 -55
20 -38 21 -155 29 -155 10 0 -5 -13 -10 -30 -10 -16 0 -30 -4 -30 -10 0 -5 -7
-10 -15 -10 -20 0 -145 -125 -145 -145 0 -8 -4 -15 -10 -15 -5 0 -10 -9 -10
-20 0 -11 -4 -20 -10 -20 -5 0 -10 -13 -10 -30 0 -16 -4 -30 -10 -30 -6 0 -10
-43 -10 -110 0 -67 4 -110 10 -110 6 0 10 -13 10 -28 0 -32 23 -84 45 -102 8
-7 15 -18 15 -24 0 -15 42 -56 57 -56 6 0 16 -7 23 -15 6 -7 35 -25 63 -40 41
-20 66 -25 124 -25 42 0 73 4 73 10 0 6 9 10 20 10 11 0 20 5 20 10 0 6 9 10
19 10 10 0 45 14 76 30 31 17 68 30 81 30 32 0 74 -42 74 -75 0 -14 5 -25 10
-25 6 0 10 -27 10 -60 0 -33 -4 -60 -10 -60 -6 0 -10 -60 -10 -160 0 -100 -4
-160 -10 -160 -6 0 -10 -41 -10 -104 0 -59 -4 -108 -10 -111 -6 -3 -10 -48
-10 -100 0 -52 -4 -97 -10 -100 -6 -3 -10 -48 -10 -101 0 -56 -4 -94 -10 -94
-15 0 -12 -29 4 -46 11 -11 46 -14 150 -14 84 0 136 -4 136 -10 0 -7 148 -10
425 -10 277 0 425 3 425 10 0 6 14 10 30 10 17 0 30 5 30 10 0 6 9 10 20 10
13 0 20 7 20 18 0 10 9 24 20 32 15 11 20 26 20 58 0 36 -6 49 -30 72 -16 15
-30 33 -30 40 0 6 -25 36 -56 66 -31 30 -67 75 -80 101 -24 47 -33 123 -14
123 6 0 10 14 10 30 0 17 5 30 10 30 6 0 10 7 10 15 0 20 105 125 125 125 8 0
15 5 15 10 0 6 9 10 20 10 11 0 20 5 20 10 0 6 9 10 20 10 11 0 20 5 20 10 0
6 20 10 44 10 25 0 48 5 51 10 8 13 295 13 295 0 0 -5 14 -10 30 -10 17 0 30
-4 30 -10 0 -5 9 -10 20 -10 11 0 20 -4 20 -10 0 -5 9 -10 20 -10 11 0 20 -4
20 -10 0 -5 7 -10 15 -10 19 0 105 -84 105 -103 0 -7 9 -19 20 -27 11 -8 20
-22 20 -32 0 -10 5 -18 10 -18 18 0 10 -77 -12 -121 -13 -24 -58 -79 -100
-121 -43 -42 -78 -84 -78 -93 0 -8 -4 -15 -10 -15 -5 0 -10 -9 -10 -20 0 -11
-4 -20 -10 -20 -5 0 -10 -9 -10 -20 0 -11 5 -20 10 -20 6 0 10 -11 10 -25 0
-40 61 -95 105 -95 19 0 35 -4 35 -10 0 -7 148 -10 425 -10 277 0 425 3 425
10 0 6 51 10 133 10 117 0 136 2 150 18 19 21 22 48 7 57 -6 4 -10 55 -10 120
0 65 -4 116 -10 120 -6 3 -10 52 -10 111 0 63 -4 104 -10 104 -6 0 -10 50 -10
130 0 80 -4 130 -10 130 -6 0 -10 55 -10 144 0 86 -4 147 -10 151 -5 3 -10 28
-10 54 0 46 -18 101 -32 101 -5 0 -8 9 -8 20 0 13 -7 20 -20 20 -11 0 -20 5
-20 10 0 15 -103 12 -136 -5 -16 -8 -67 -53 -114 -100 -47 -47 -98 -92 -114
-100 -33 -17 -176 -21 -176 -5 0 6 -9 10 -20 10 -11 0 -20 5 -20 10 0 6 -6 10
-13 10 -8 0 -22 9 -32 20 -10 11 -23 20 -30 20 -13 0 -75 62 -75 76 0 5 -9 16
-20 24 -11 8 -20 21 -20 30 0 9 -9 22 -20 30 -12 8 -20 26 -20 42 0 15 -4 28
-10 28 -5 0 -10 23 -10 50 0 28 -4 50 -10 50 -5 0 -10 23 -10 50 0 28 5 50 10
50 6 0 10 23 10 50 0 28 5 50 10 50 6 0 10 14 10 30 0 17 5 30 10 30 6 0 10 8
10 18 0 10 9 24 20 32 11 8 20 20 20 27 0 17 105 123 121 123 6 0 20 9 30 21
10 11 23 18 28 14 6 -3 11 -1 11 4 0 6 14 11 30 11 17 0 30 5 30 10 0 15 83
12 116 -5 16 -8 71 -55 122 -105 51 -49 99 -90 105 -90 7 0 19 -9 27 -20 8
-11 22 -20 32 -20 10 0 18 -4 18 -10 0 -5 9 -10 20 -10 11 0 20 5 20 10 0 6 7
10 15 10 26 0 85 66 85 95 0 14 5 25 10 25 6 0 10 31 10 74 0 41 5 78 10 81 6
4 10 58 10 130 0 72 4 126 10 130 6 4 10 62 10 141 0 83 4 134 10 134 6 0 10
38 10 94 0 53 4 98 10 101 6 3 10 39 10 80 0 41 5 77 10 80 6 3 10 35 10 71
l0 64 -49 0 c-28 0 -53 -4 -56 -10 -3 -5 -44 -10 -91 -10 -49 0 -84 -4 -84
-10 0 -6 -30 -10 -70 -10 -40 0 -70 -4 -70 -10 0 -6 -33 -10 -80 -10 -47 0
-80 -4 -80 -10 0 -6 -38 -10 -94 -10 -53 0 -98 -4 -101 -10 -4 -6 -55 -10
-120 -10 -65 0 -116 -4 -120 -10 -3 -5 -31 -10 -61 -10 -30 0 -54 5 -54 10 0
6 -16 10 -35 10 -38 0 -85 36 -85 65 0 8 -4 15 -10 15 -5 0 -10 14 -10 30 0
17 5 30 10 30 6 0 10 9 10 20 0 11 5 20 10 20 6 0 10 14 10 30 0 17 5 30 10
30 6 0 10 9 10 20 0 11 5 20 10 20 6 0 10 9 10 20 0 11 5 20 10 20 6 0 10 14
10 30 0 17 5 30 10 30 6 0 10 28 10 64 0 36 -4 68 -10 71 -5 3 -10 14 -10 24
0 68 -176 231 -250 231 -11 0 -22 5 -25 10 -3 6 -48 10 -100 10 -52 0 -97 -4
-100 -10z"/>
<path d="M5890 9150 c0 -5 -7 -10 -16 -10 -16 0 -44 -23 -44 -36 0 -4 -10 -18
-22 -31 -12 -13 -16 -23 -10 -23 7 0 12 -11 12 -25 0 -40 61 -95 105 -95 19 0
35 5 35 10 0 6 7 10 16 10 17 0 32 14 52 48 33 58 -7 142 -67 142 -16 0 -33 5
-36 10 -3 6 -10 10 -16 10 -5 0 -9 -4 -9 -10z"/>
<path d="M3632 9107 c-19 -20 -32 -43 -32 -58 0 -40 28 -86 62 -104 35 -17 78
-20 78 -5 0 6 7 10 15 10 20 0 65 45 65 65 0 8 5 15 10 15 22 0 8 43 -25 75
-31 31 -40 35 -88 35 -47 0 -57 -4 -85 -33z"/>
<path d="M8260 8760 c0 -5 -9 -10 -20 -10 -11 0 -20 -4 -20 -10 0 -5 -13 -10
-28 -10 -16 0 -34 -8 -42 -20 -8 -11 -19 -20 -24 -20 -15 0 -156 -142 -156
-156 0 -6 -7 -17 -15 -24 -22 -18 -45 -70 -45 -101 0 -15 -4 -31 -10 -34 -6
-4 -10 -55 -10 -120 0 -65 4 -116 10 -120 6 -3 10 -14 10 -24 0 -23 26 -75 45
-91 8 -7 15 -17 15 -22 0 -23 96 -138 115 -138 7 0 19 -8 28 -18 9 -10 32 -24
52 -32 19 -8 35 -17 35 -22 0 -4 9 -8 20 -8 11 0 20 -4 20 -10 0 -5 12 -10 26
-10 47 0 54 -18 54 -149 l0 -121 -213 0 -213 0 -14 35 c-8 19 -17 35 -22 35
-4 0 -8 14 -8 30 0 17 -4 30 -10 30 -5 0 -10 9 -10 20 0 11 -4 20 -10 20 -5 0
-10 7 -10 15 0 20 -45 65 -65 65 -8 0 -15 5 -15 10 0 6 -9 10 -20 10 -11 0
-20 5 -20 10 0 16 -514 13 -543 -2 -42 -24 -67 -52 -67 -74 0 -13 -4 -26 -10
-29 -6 -4 -10 -62 -10 -141 0 -83 -4 -134 -10 -134 -5 0 -10 -13 -10 -30 0
-16 -4 -30 -10 -30 -5 0 -10 -7 -10 -15 0 -25 -46 -65 -75 -65 -14 0 -25 -4
-25 -10 0 -6 -36 -10 -88 -10 -76 0 -89 3 -102 20 -8 11 -20 20 -28 20 -18 0
-42 25 -42 44 0 9 -4 16 -10 16 -5 0 -10 9 -10 20 0 11 -4 20 -10 20 -5 0 -10
14 -10 30 0 17 -4 30 -10 30 -6 0 -10 105 -10 295 l0 295 425 0 c277 0 425 3
425 10 0 6 25 10 56 10 35 0 61 5 70 14 16 17 20 126 4 126 -5 0 -10 9 -10 20
0 20 -7 20 -750 20 -493 0 -750 -3 -750 -10 0 -5 -9 -10 -20 -10 -13 0 -20 -7
-20 -20 0 -11 -4 -20 -10 -20 -5 0 -10 -18 -10 -40 0 -22 5 -40 10 -40 6 0 10
-9 10 -20 0 -13 7 -20 20 -20 11 0 20 -4 20 -10 0 -6 58 -10 153 -10 106 0
157 -4 165 -12 9 -9 12 -97 12 -335 0 -209 4 -323 10 -323 6 0 10 -22 10 -50
0 -27 5 -50 10 -50 6 0 10 -7 10 -15 0 -19 124 -145 143 -145 7 0 19 -9 27
-20 8 -11 22 -20 32 -20 10 0 18 -4 18 -10 0 -5 14 -10 30 -10 17 0 30 -4 30
-10 0 -6 47 -10 120 -10 73 0 120 4 120 10 0 6 9 10 20 10 11 0 20 5 20 10 0
6 12 10 28 10 16 0 32 8 40 20 7 11 18 20 25 20 15 0 110 94 102 101 -3 3 4
14 15 24 11 10 20 28 20 41 0 13 5 26 10 29 6 3 10 43 10 89 0 52 5 87 12 94
10 10 10 15 -1 21 -9 6 -10 11 -2 15 6 4 11 23 11 42 0 36 8 42 28 22 9 -9 12
-9 12 0 0 9 34 12 125 12 167 0 184 -9 245 -134 53 -111 105 -156 179 -156 22
0 43 -4 46 -10 4 -6 85 -10 211 -10 l204 0 0 -244 c0 -153 4 -247 10 -251 6
-3 10 -33 10 -66 0 -50 4 -64 25 -84 24 -25 75 -35 75 -15 0 6 14 10 30 10 23
0 30 4 30 20 0 11 5 20 10 20 6 0 10 11 10 24 0 14 5 28 10 31 6 3 10 40 10
81 l0 74 86 0 c61 0 90 -4 100 -14 11 -12 14 -66 14 -301 l0 -286 25 -24 c34
-35 106 -35 141 0 l24 24 -2 382 -3 382 -30 18 c-25 15 -56 18 -192 18 l-163
1 0 341 c0 357 1 369 44 369 9 0 16 5 16 10 0 6 9 10 20 10 11 0 20 5 20 10 0
6 7 10 15 10 8 0 49 36 91 79 73 77 124 155 124 192 0 10 5 21 10 24 6 3 10
21 10 40 0 19 5 37 10 40 6 3 10 30 10 60 0 30 -4 57 -10 60 -5 3 -10 26 -10
50 0 24 -4 47 -10 50 -5 3 -10 16 -11 28 0 12 -9 36 -20 52 -10 17 -23 39 -28
50 -14 30 -127 145 -143 145 -7 0 -20 9 -28 20 -8 12 -26 20 -42 20 -15 0 -28
5 -28 10 0 6 -18 10 -40 10 -22 0 -40 5 -40 10 0 6 -47 10 -120 10 -73 0 -120
-4 -120 -10z"/>
<path d="M2043 8605 c-13 -13 -23 -31 -23 -39 0 -8 -6 -17 -12 -20 -10 -5 -10
-7 0 -12 6 -3 12 -17 12 -31 0 -28 21 -53 44 -53 9 0 16 -4 16 -10 0 -5 15
-10 33 -10 36 0 70 30 97 84 12 23 12 30 3 33 -7 3 -13 11 -13 20 0 19 -24 43
-44 43 -9 0 -16 5 -16 10 0 6 -17 10 -37 9 -27 0 -45 -7 -60 -24z"/>
<path d="M7453 8605 c-40 -43 -26 -155 20 -155 9 0 19 -4 22 -10 3 -5 17 -10
31 -10 13 0 24 5 24 10 0 6 9 10 20 10 13 0 20 7 20 18 0 10 9 24 20 32 29 21
25 35 -25 85 -53 53 -95 60 -132 20z"/>
<path d="M619 7403 c-13 -16 -24 -35 -23 -43 1 -8 2 -27 3 -41 2 -47 32 -69
93 -69 70 0 98 25 98 89 0 60 -33 91 -98 91 -40 0 -52 -5 -73 -27z"/>
<path d="M7610 7020 c0 -5 -9 -10 -20 -10 -13 0 -20 -7 -20 -20 0 -11 -4 -20
-10 -20 -23 0 -8 -52 25 -85 l34 -35 211 0 c133 0 210 4 210 10 0 6 9 10 20
10 13 0 20 7 20 20 0 11 5 20 10 20 24 0 9 57 -23 88 l-33 32 -212 0 c-135 0
-212 -4 -212 -10z"/>
<path d="M657 5922 c-24 -25 -27 -36 -27 -99 0 -40 -4 -74 -9 -77 -12 -8 -14
-183 -1 -191 5 -3 10 -39 10 -79 0 -89 13 -106 84 -106 49 0 76 16 76 44 0 9
5 16 10 16 6 0 10 85 10 235 l0 236 -25 24 c-35 36 -92 34 -128 -3z"/>
<path d="M8842 5907 c-21 -22 -22 -32 -22 -256 -1 -228 -1 -234 21 -257 23
-24 89 -35 89 -14 0 6 7 10 16 10 23 0 44 25 44 54 0 14 5 26 10 26 6 0 10 63
10 170 0 107 -4 170 -10 170 -5 0 -10 23 -10 50 0 43 -3 50 -20 50 -11 0 -20
5 -20 10 0 6 -19 10 -43 10 -32 0 -49 -6 -65 -23z"/>
<path d="M653 3765 c-19 -20 -23 -35 -23 -94 0 -38 -4 -73 -10 -76 -6 -4 -10
-78 -9 -193 0 -159 3 -191 18 -217 21 -35 92 -77 98 -57 3 6 11 12 20 12 19 0
43 24 43 44 0 9 5 16 10 16 15 0 13 509 -2 541 -24 52 -107 65 -145 24z"/>
<path d="M8837 3765 c-16 -22 -18 -52 -18 -310 0 -158 3 -290 6 -295 9 -15 67
-40 92 -40 26 0 73 41 73 64 0 8 6 17 13 19 9 4 8 8 -3 16 -13 10 -13 12 0 21
13 9 13 11 0 21 -11 8 -12 12 -2 16 14 6 16 43 2 43 -5 0 -10 14 -10 30 0 17
5 30 10 30 6 0 10 18 10 40 0 22 -4 40 -10 40 -15 0 -12 123 3 139 10 11 10
14 0 18 -9 3 -13 26 -13 67 0 52 -4 66 -23 84 -34 32 -106 30 -130 -3z"/>
<path d="M690 2902 c-35 -11 -60 -46 -60 -84 0 -21 -6 -47 -12 -58 -11 -17
-10 -22 1 -30 12 -7 12 -11 2 -23 -13 -17 -15 -323 -2 -332 5 -2 9 -37 9 -76
1 -64 5 -76 29 -101 15 -15 37 -28 49 -28 13 0 26 -4 29 -10 4 -6 65 -10 151
-10 l144 0 0 -351 c0 -323 -1 -353 -17 -365 -10 -7 -27 -14 -39 -14 -11 0 -29
-9 -39 -20 -10 -11 -23 -20 -29 -20 -15 0 -176 -162 -176 -176 0 -6 -9 -19
-20 -29 -11 -10 -20 -28 -20 -41 0 -13 -4 -26 -10 -29 -5 -3 -10 -21 -10 -40
0 -19 -5 -37 -10 -40 -13 -8 -13 -122 0 -130 6 -3 10 -26 10 -50 0 -24 5 -47
10 -50 6 -3 10 -16 10 -29 0 -13 9 -31 20 -41 11 -10 20 -23 20 -30 0 -7 9
-20 20 -30 11 -10 20 -23 20 -30 0 -15 66 -75 83 -75 7 0 19 -9 27 -20 8 -11
21 -20 30 -20 9 0 22 -9 30 -20 8 -12 26 -20 42 -20 15 0 28 -4 28 -10 0 -5
24 -10 54 -10 30 0 58 -4 61 -10 3 -5 28 -10 56 -10 27 0 49 5 49 10 0 6 23
10 50 10 28 0 50 5 50 10 0 6 9 10 20 10 11 0 20 5 20 10 0 6 9 10 20 10 11 0
20 5 20 10 0 6 6 10 13 10 8 0 22 9 32 20 10 11 23 20 29 20 17 0 76 56 76 72
0 7 9 20 20 28 11 8 20 22 20 32 0 10 5 18 10 18 6 0 10 9 10 20 0 11 5 20 10
20 6 0 10 9 10 20 0 11 5 20 10 20 6 0 10 14 10 30 0 17 5 30 10 30 6 0 10 43
10 110 0 67 -4 110 -10 110 -5 0 -10 14 -10 30 0 17 -4 30 -10 30 -5 0 -10 9
-10 20 0 11 -4 20 -10 20 -5 0 -10 9 -10 20 0 11 -4 20 -10 20 -5 0 -10 7 -10
16 0 23 -128 143 -172 162 -21 9 -38 20 -38 24 0 5 -13 8 -30 8 -16 0 -30 5
-30 10 0 6 -11 10 -25 10 -14 0 -37 11 -50 25 -24 23 -25 30 -25 150 l0 125
221 0 c230 0 249 -3 249 -44 0 -9 5 -16 10 -16 6 0 10 -8 10 -18 0 -10 9 -24
20 -32 11 -8 20 -20 20 -28 0 -23 68 -82 95 -82 14 0 25 -4 25 -10 0 -6 95
-10 265 -10 170 0 265 4 265 10 0 6 12 10 26 10 29 0 54 21 54 44 0 9 5 16 10
16 6 0 10 53 10 140 0 87 4 140 10 140 6 0 10 23 10 50 0 28 3 50 8 50 4 0 12
10 17 22 6 12 19 26 29 32 11 6 29 19 40 29 11 9 35 17 53 17 18 0 33 5 33 10
0 18 56 10 105 -14 62 -32 135 -103 135 -132 0 -13 5 -26 10 -29 6 -4 10 -113
10 -296 l0 -289 -30 0 c-16 0 -30 -4 -30 -10 0 -6 -94 -10 -263 -10 l-263 0
-27 -28 c-22 -22 -27 -38 -27 -76 0 -76 1 -76 224 -76 124 0 196 -4 196 -10 0
-5 9 -10 20 -10 11 0 20 5 20 10 0 6 64 10 173 10 l172 0 13 27 c15 34 18 803
2 803 -5 0 -10 23 -10 50 0 28 -4 50 -10 50 -5 0 -10 8 -10 18 0 10 -9 24 -20
32 -11 8 -20 21 -20 28 0 18 -75 92 -93 92 -7 0 -19 9 -27 20 -8 12 -26 20
-42 20 -15 0 -28 5 -28 10 0 6 -18 10 -40 10 -22 0 -40 5 -40 10 0 6 -27 10
-60 10 -33 0 -60 -4 -60 -10 0 -5 -18 -10 -40 -10 -22 0 -40 -4 -40 -10 0 -5
-13 -10 -30 -10 -16 0 -30 -4 -30 -10 0 -5 -9 -10 -20 -10 -11 0 -20 -4 -20
-10 0 -5 -7 -10 -15 -10 -41 0 -165 -158 -165 -211 0 -10 -4 -21 -10 -24 -6
-4 -10 -58 -10 -131 l0 -124 -181 0 c-185 0 -209 5 -209 42 0 8 -9 20 -20 28
-11 8 -20 21 -20 30 0 9 -9 22 -20 30 -11 8 -20 22 -20 32 0 11 -7 18 -20 18
-11 0 -20 5 -20 10 0 6 -9 10 -20 10 -11 0 -20 5 -20 10 0 6 -30 10 -70 10
-40 0 -70 4 -70 10 0 6 -72 10 -195 10 l-195 0 0 83 c0 51 -5 88 -12 95 -9 9
66 12 339 12 224 0 354 4 358 10 3 6 20 10 38 10 44 0 87 43 87 87 0 18 -4 33
-10 33 -5 0 -10 9 -10 20 0 13 -7 20 -20 20 -11 0 -20 5 -20 10 0 6 -112 10
-315 10 -203 0 -315 4 -315 10 0 6 -27 10 -60 10 l-60 0 0 130 c0 80 -4 130
-10 130 -5 0 -10 7 -10 16 0 27 -32 43 -83 44 -38 0 -53 -5 -72 -25 -23 -23
-25 -31 -25 -130 0 -63 -4 -105 -10 -105 -5 0 -10 -12 -10 -26 0 -41 -22 -54
-90 -54 -63 0 -90 13 -90 44 0 9 -4 16 -10 16 -6 0 -10 82 -10 226 0 220 -1
227 -22 245 -11 11 -26 19 -32 20 -6 0 -20 2 -31 3 -12 1 -27 0 -35 -2z"/>
<path d="M8902 1904 c-42 -21 -69 -54 -70 -85 -1 -44 21 -88 52 -105 33 -16
66 -19 66 -4 0 6 9 10 20 10 13 0 20 7 20 20 0 11 5 20 10 20 6 0 10 20 10 45
0 35 -6 52 -25 70 -13 14 -31 25 -39 25 -8 0 -16 4 -18 8 -1 4 -13 3 -26 -4z"/>
<path d="M2046 810 c-28 -28 -49 -74 -37 -78 6 -2 11 -15 11 -28 0 -69 102
-100 153 -46 46 48 34 152 -17 152 -9 0 -16 5 -16 10 0 18 -74 10 -94 -10z"/>
<path d="M7510 820 c0 -5 -12 -10 -26 -10 -38 0 -54 -22 -54 -76 0 -61 36
-104 87 -104 18 0 33 4 33 9 0 5 9 11 20 14 11 3 20 12 20 21 0 9 5 16 10 16
6 0 10 16 10 35 0 38 -36 85 -65 85 -8 0 -15 5 -15 10 0 6 -4 10 -10 10 -5 0
-10 -4 -10 -10z"/>
</g>
</svg>
